<?xml version="1.0" standalone="no"?>
<!DOCTYPE svg PUBLIC "-//W3C//DTD SVG 20010904//EN"
 "http://www.w3.org/TR/2001/REC-SVG-20010904/DTD/svg10.dtd">
<svg version="1.0" xmlns="http://www.w3.org/2000/svg"
 width="513.000000pt" height="513.000000pt" viewBox="0 0 513.000000 513.000000"
 preserveAspectRatio="xMidYMid meet">
<metadata>
Created by potrace 1.14, written by Peter Selinger 2001-2017
</metadata>
<g transform="translate(0.000000,513.000000) scale(0.100000,-0.100000)"
fill="#000000" stroke="none">
<path d="M2638 5105 c-2 -2 -65 -5 -140 -7 -76 -1 -138 -5 -138 -8 0 -3 -15
-5 -33 -6 -42 -1 -153 -13 -169 -19 -16 -5 -61 -15 -108 -21 -19 -3 -55 -12
-80 -21 -25 -8 -52 -16 -61 -18 -9 -2 -49 -13 -90 -25 -41 -12 -74 -21 -75
-19 0 2 -7 -1 -15 -7 -11 -9 -68 -32 -99 -39 -85 -22 -481 -242 -569 -316 -7
-7 -34 -28 -60 -47 -25 -19 -54 -42 -63 -51 -9 -9 -35 -32 -58 -51 -146 -122
-351 -358 -453 -520 -25 -41 -50 -80 -55 -85 -4 -6 -32 -55 -61 -110 -73 -138
-130 -274 -166 -395 -1 -3 -7 -17 -13 -32 -20 -48 -74 -291 -69 -310 3 -11 1
-15 -5 -11 -8 4 -9 -4 -5 -24 3 -17 3 -34 -1 -38 -4 -4 -8 -16 -9 -28 -2 -12
-5 -42 -8 -67 -3 -25 -7 -139 -9 -255 -3 -180 -1 -232 19 -365 51 -342 134
-583 315 -915 18 -33 39 -67 46 -76 8 -8 14 -20 14 -26 0 -6 3 -13 8 -15 4 -1
29 -36 56 -75 27 -40 53 -73 58 -73 4 0 8 -5 8 -11 0 -6 6 -16 12 -23 7 -7 24
-27 38 -45 36 -48 257 -271 308 -312 24 -18 58 -46 75 -61 18 -15 35 -28 39
-28 4 0 13 -6 20 -13 22 -21 148 -107 158 -107 4 0 10 -4 12 -8 6 -15 260
-152 282 -152 9 0 16 -4 16 -8 0 -7 120 -61 150 -68 9 -2 44 -16 77 -30 17 -8
36 -14 42 -14 6 0 44 -11 85 -24 40 -14 87 -27 102 -30 16 -3 72 -15 124 -25
117 -24 161 -31 225 -36 28 -2 68 -7 90 -10 85 -12 411 -6 525 10 19 2 55 7
80 10 25 4 88 16 140 27 52 11 100 21 107 22 7 1 16 5 19 9 4 4 15 7 25 7 10
0 30 5 46 12 15 6 31 11 35 10 30 -7 349 127 375 156 31 36 37 80 16 119 -20
37 -40 44 -143 49 -65 3 -129 10 -178 20 -45 9 -164 50 -227 79 -69 31 -203
112 -230 138 -7 7 -33 30 -59 51 -26 22 -73 71 -105 110 -128 160 -186 284
-239 516 -3 14 -5 93 -5 175 1 155 16 240 69 380 25 67 107 211 144 254 l29
35 78 -75 c209 -199 487 -328 768 -356 405 -41 791 97 1070 381 152 155 272
356 320 536 19 69 26 102 31 145 3 28 7 61 10 75 13 74 1 305 -20 395 -6 24
-28 98 -45 152 -22 69 -165 354 -204 407 -4 6 -26 40 -48 76 -23 36 -45 67
-48 70 -4 3 -25 30 -46 61 -85 120 -286 327 -435 446 -98 78 -234 173 -250
173 -5 0 -10 4 -10 9 0 5 -8 11 -17 14 -18 6 -73 37 -83 47 -13 13 -89 50
-103 50 -8 0 -17 4 -19 8 -7 17 -137 72 -308 129 -111 38 -129 44 -145 50 -5
1 -50 12 -100 23 -49 11 -99 23 -110 26 -23 6 -40 9 -110 18 -27 4 -66 9 -85
12 -19 2 -82 7 -140 10 -58 2 -113 6 -122 8 -9 2 -18 2 -20 1z m-2288 -1699
c0 -2 -8 -10 -17 -17 -16 -13 -17 -12 -4 4 13 16 21 21 21 13z m-127 -131 c-3
-9 -8 -14 -10 -11 -3 3 -2 9 2 15 9 16 15 13 8 -4z m-100 -160 c-3 -9 -8 -14
-10 -11 -3 3 -2 9 2 15 9 16 15 13 8 -4z"/>
</g>
</svg>
